<?xml version="1.0" standalone="no"?>
<!DOCTYPE svg PUBLIC "-//W3C//DTD SVG 20010904//EN"
 "http://www.w3.org/TR/2001/REC-SVG-20010904/DTD/svg10.dtd">
<svg version="1.0" xmlns="http://www.w3.org/2000/svg"
 width="2819.000000pt" height="1540.000000pt" viewBox="0 0 2819.000000 1540.000000"
 preserveAspectRatio="xMidYMid meet">
<metadata>
Created by potrace 1.16, written by Peter Selinger 2001-2019
</metadata>
<g transform="translate(0.000000,1540.000000) scale(0.100000,-0.100000)"
fill="#000000" stroke="none">
<path d="M6497 10603 c-4 -3 -7 -761 -7 -1682 0 -1501 2 -1679 16 -1699 14
-21 22 -22 138 -22 103 0 126 3 137 17 12 13 15 238 19 1337 5 1238 6 1321 22
1324 17 3 191 -158 563 -519 83 -80 368 -357 635 -615 267 -258 600 -581 740
-719 503 -493 573 -562 711 -698 92 -92 145 -137 156 -135 17 3 18 83 21 1595
2 1437 1 1593 -14 1607 -12 13 -39 16 -134 16 -111 0 -120 -1 -134 -22 -14
-20 -16 -154 -16 -1233 0 -699 -4 -1216 -9 -1224 -8 -12 -13 -12 -34 2 -25 16
-224 206 -492 467 -214 209 -1038 1005 -1310 1265 -127 121 -370 355 -540 520
-469 453 -450 436 -468 418z"/>
<path d="M18797 10583 c-4 -3 -7 -758 -7 -1677 0 -1497 2 -1674 16 -1694 14
-21 22 -22 132 -22 64 0 122 4 128 8 32 21 34 51 34 649 0 453 3 602 12 611 9
9 135 12 504 12 270 0 506 3 523 6 22 5 31 12 31 26 0 19 -63 103 -168 226
l-54 62 -402 0 c-347 0 -405 2 -424 16 l-22 15 0 520 c0 513 0 519 20 519 23
0 64 -36 355 -314 494 -472 819 -781 1110 -1056 171 -162 470 -447 665 -634
581 -558 690 -661 708 -668 21 -8 355 -10 376 -2 45 17 21 42 -579 614 -176
168 -358 341 -405 385 -47 44 -148 141 -225 215 -190 183 -733 702 -864 825
-156 146 -674 640 -1079 1027 -194 186 -358 338 -366 338 -7 0 -16 -3 -19 -7z"/>
<path d="M13247 10402 c-16 -17 -17 -142 -17 -1599 0 -1518 1 -1581 18 -1596
17 -16 126 -17 1370 -17 1147 0 1353 2 1365 14 17 18 27 814 27 2227 l0 948
-27 21 c-25 20 -38 21 -136 18 -94 -3 -111 -6 -123 -22 -12 -17 -14 -229 -14
-1432 0 -1375 0 -1412 -19 -1435 l-19 -24 -1048 -3 c-928 -2 -1050 -1 -1071
13 l-23 15 0 1429 c0 1371 -1 1429 -18 1444 -15 14 -41 17 -134 17 -99 0 -117
-3 -131 -18z"/>
<path d="M16446 10388 c-14 -20 -16 -188 -16 -1594 0 -1509 1 -1572 18 -1587
17 -16 98 -17 955 -17 837 0 937 2 951 16 13 12 16 40 16 143 0 85 -4 131 -12
139 -9 9 -200 12 -798 12 -663 0 -789 2 -806 14 -19 14 -19 38 -15 1434 2
1054 0 1425 -8 1441 -11 20 -19 21 -141 21 -122 0 -130 -1 -144 -22z"/>
<path d="M19881 10392 c-24 -17 -3 -46 132 -180 l134 -132 1377 0 1376 0 10
-22 c5 -13 13 -237 19 -498 15 -631 14 -725 -2 -739 -10 -8 -242 -12 -808 -13
-707 -3 -794 -5 -797 -18 -2 -10 86 -98 225 -225 125 -116 257 -237 293 -271
309 -287 370 -344 406 -374 50 -43 416 -383 622 -579 84 -80 165 -151 180
-158 18 -8 89 -12 209 -13 155 0 184 2 198 16 15 16 14 20 -22 56 -36 38 -308
293 -508 478 -821 756 -777 714 -773 744 l3 21 538 5 c524 5 539 6 554 25 13
18 14 75 9 470 -18 1349 -19 1376 -33 1391 -12 12 -111 14 -616 14 -331 0
-1077 3 -1657 6 -664 3 -1060 2 -1069 -4z"/>
<path d="M10098 10373 c-14 -16 -16 -185 -19 -1579 -4 -1524 -4 -1562 15
-1583 l19 -21 1317 0 c1121 0 1319 2 1336 14 18 14 19 35 22 774 2 738 2 760
-17 783 l-19 24 -744 -3 -743 -3 -23 -27 c-29 -35 -145 -200 -161 -230 -28
-53 -47 -52 694 -52 572 0 684 -2 694 -14 9 -10 12 -137 11 -467 0 -383 -3
-456 -15 -468 -13 -13 -152 -14 -1032 -12 -911 2 -1020 4 -1035 18 -17 15 -18
88 -18 1269 l0 1253 22 15 c20 14 149 16 1190 16 1112 0 1168 1 1177 18 5 10
11 73 13 141 3 112 1 124 -16 137 -17 12 -217 14 -1336 14 -1242 0 -1318 -1
-1332 -17z"/>
<path d="M23691 10380 c-29 -17 -31 -81 -31 -963 0 -801 2 -905 16 -925 l15
-22 1159 0 1159 0 15 22 c12 17 16 49 16 136 0 107 -1 114 -25 137 l-24 25
-994 0 c-950 0 -995 1 -1010 18 -15 17 -17 74 -17 618 0 526 2 602 16 622 l15
22 1005 0 c991 0 1004 0 1024 20 18 18 20 33 20 138 0 101 -3 121 -17 134 -16
14 -150 16 -1175 20 -637 2 -1162 2 -1167 -2z"/>
<path d="M2050 10361 c0 -12 118 -140 303 -328 275 -280 967 -993 1971 -2028
208 -214 385 -400 393 -412 37 -56 112 -53 -1240 -53 -1192 0 -1245 -1 -1260
-18 -14 -15 -17 -41 -17 -144 0 -108 2 -127 18 -141 17 -16 144 -17 1624 -17
1732 0 1652 -2 1616 49 -8 11 -207 219 -443 463 -237 243 -574 591 -749 773
-176 181 -397 409 -491 505 -94 96 -269 278 -390 405 -121 126 -300 312 -397
412 -98 100 -178 189 -178 196 0 37 -11 37 1246 37 l1223 0 15 22 c12 17 16
50 16 144 0 104 -2 123 -18 137 -17 16 -145 17 -1630 17 -1583 0 -1612 0
-1612 -19z"/>
<path d="M5766 10358 c-14 -20 -16 -186 -16 -1574 0 -1490 1 -1552 18 -1567
15 -14 41 -17 135 -17 110 0 117 1 132 23 13 20 15 213 15 1571 1 1445 0 1550
-16 1567 -15 17 -32 19 -135 19 -110 0 -119 -1 -133 -22z"/>
<path d="M23676 8128 c-14 -20 -16 -81 -16 -465 0 -430 1 -444 20 -463 20 -20
33 -20 1169 -20 1114 0 1149 1 1172 19 22 18 24 28 27 133 4 102 2 116 -16
138 l-20 25 -1003 3 c-913 2 -1004 4 -1021 19 -17 15 -18 39 -18 308 0 270 -1
293 -18 308 -15 14 -41 17 -140 17 -114 0 -122 -1 -136 -22z"/>
<path d="M11190 5520 c-19 -19 -20 -33 -20 -442 0 -233 4 -428 8 -435 7 -12
54 -33 73 -33 5 0 21 11 34 25 25 24 25 26 25 210 l0 185 78 1 c42 0 136 1
207 2 72 1 138 -2 148 -5 15 -7 17 -25 17 -192 0 -208 3 -216 69 -216 73 0 71
-16 71 463 l0 426 -22 15 c-28 20 -68 20 -94 2 -17 -13 -19 -31 -24 -188 l-5
-173 -200 -3 c-110 -1 -210 0 -222 3 -23 5 -23 8 -23 170 0 152 -2 167 -20
185 -11 11 -33 20 -50 20 -17 0 -39 -9 -50 -20z"/>
<path d="M12919 5517 c-122 -42 -196 -110 -258 -237 -33 -70 -36 -83 -39 -186
-4 -97 -1 -119 21 -182 31 -90 84 -163 159 -218 84 -61 143 -79 263 -79 93 0
105 3 170 34 164 80 255 233 255 430 0 316 -286 535 -571 438z m272 -144 c96
-52 150 -144 157 -270 11 -203 -97 -348 -267 -361 -118 -8 -219 43 -275 141
-73 126 -63 308 23 416 85 108 242 140 362 74z"/>
<path d="M14242 5523 l-22 -18 0 -430 c-1 -428 -1 -430 21 -447 26 -22 58 -23
87 -2 22 15 22 17 22 304 0 159 4 291 9 294 4 3 15 -2 23 -12 13 -15 133 -215
214 -357 15 -27 33 -53 39 -57 19 -14 62 -8 78 10 9 10 63 99 120 198 123 214
130 224 139 224 5 0 8 -129 8 -287 0 -159 4 -293 8 -299 25 -38 103 -40 122
-4 6 12 10 180 10 439 0 415 0 421 -21 442 -17 17 -29 20 -56 16 -49 -8 -63
-24 -136 -151 -225 -391 -226 -394 -245 -382 -11 6 -118 185 -220 366 -39 69
-80 134 -90 143 -30 27 -83 32 -110 10z"/>
<path d="M15919 5513 c-11 -13 -15 -97 -17 -427 -1 -226 0 -421 3 -433 9 -37
54 -42 333 -40 248 2 264 3 278 21 19 27 18 70 -4 89 -16 15 -48 17 -233 17
-154 0 -218 3 -227 12 -8 8 -12 53 -12 135 0 111 2 123 19 133 12 6 93 10 194
10 156 0 176 2 190 18 22 24 21 54 0 81 -17 19 -30 21 -201 23 -149 2 -184 6
-192 18 -11 17 -13 172 -4 208 6 22 7 22 224 22 185 0 221 2 234 16 25 25 30
61 12 89 l-16 25 -284 0 c-251 0 -285 -2 -297 -17z"/>
</g>
</svg>
